PathFileType	4	(X/Y/Z)	F:\MotionCapture\20160217\3\Generated_files\EMG_test04-Dynamic.trc
DataRate	CameraRate	NumFrames	NumMarkers	Units	OrigDataRate	OrigDataStartFrame	OrigNumFrames
120.00	120.00	       6	39	mm	120.00	535	       713
Frame#	Time	Top.Head			Front.Head			Rear.Head			R.Shoulder			R.Offset			R.Elbow			R.Wrist			L.Shoulder			L.Elbow			L.Wrist			R.ASIS			L.ASIS			V.Sacral			R.Thigh			R.Knee			R.Shank			R.Ankle			R.Heel			R.Toe			L.Thigh			L.Knee			L.Shank			L.Ankle			L.Heel			L.Toe			R1			R2			R3			R4			R5			R6			R7			L1			L2			L3			L4			L5			L6			L7			V_Mid_ASIS			V_Pelvis_Origin			V_R.Hip_JC			V_L.Hip_JC			V_R.Knee_JC			V_L.Knee_JC			V_R.Ankle_JC			V_L.Ankle_JC			V_Mid_Hip			V_Mid_Shoulder			V_R.Hand			V_L.Hand			V_R.Toe_Offset_Static			V_L.Toe_Offset_Static			V_R.Toe_Offset			V_L.Toe_Offset			
		X1	Y1	Z1	X2	Y2	Z2	X3	Y3	Z3	X4	Y4	Z4	X5	Y5	Z5	X6	Y6	Z6	X7	Y7	Z7	X8	Y8	Z8	X9	Y9	Z9	X10	Y10	Z10	X11	Y11	Z11	X12	Y12	Z12	X13	Y13	Z13	X14	Y14	Z14	X15	Y15	Z15	X16	Y16	Z16	X17	Y17	Z17	X18	Y18	Z18	X19	Y19	Z19	X20	Y20	Z20	X21	Y21	Z21	X22	Y22	Z22	X23	Y23	Z23	X24	Y24	Z24	X25	Y25	Z25	X26	Y26	Z26	X27	Y27	Z27	X28	Y28	Z28	X29	Y29	Z29	X30	Y30	Z30	X31	Y31	Z31	X32	Y32	Z32	X33	Y33	Z33	X34	Y34	Z34	X35	Y35	Z35	X36	Y36	Z36	X37	Y37	Z37	X38	Y38	Z38	X39	Y39	Z39	

535	4.450	-1883.59399	179.01581	1693.85632	-1990.34668	178.19548	1604.15601	-1770.36340	168.66068	1631.01770	-1813.50525	365.59790	1393.86926	-1697.12256	103.47717	1232.56750	-1868.47229	500.51007	1088.84766	-2114.26465	493.34671	1001.09058	-1839.14429	-40.40420	1383.16748	-1739.54443	-129.69424	1078.00476	-1742.48608	-158.65450	821.44513	-1889.55566	327.35080	901.70001	-1938.94019	44.06900	923.31671	-1693.98999	138.01669	904.04004	-1880.31470	328.15424	517.33185	-1766.77698	349.26831	427.25452	-1607.46069	260.74686	257.52649	-1431.14905	295.13754	202.57396	-1399.39063	218.66214	246.62703	-1452.98621	283.02838	55.98896	-2062.91284	92.24293	648.85278	-2039.53088	41.32280	468.02197	-2060.53149	124.31331	331.59991	-2021.73523	65.91946	60.01122	-1953.75793	118.13360	42.42548	-2161.77100	79.47619	40.36089	-1483.91614	270.39575	31.51766	-1469.62854	248.29820	55.20951	-1465.54395	215.57735	143.48262	-1427.51514	196.87816	202.13387	-1395.85669	265.08737	220.63359	-1405.14954	301.74091	146.10518	-1421.23950	314.88623	82.34798	-2204.33911	108.31153	34.78328	-2171.74878	119.55595	43.28623	-2074.64722	158.25578	48.89411	-1990.15320	152.74557	43.14442	-1983.54309	80.31743	39.81897	-2056.92944	56.32431	33.07415	-2121.72046	45.92073	37.48205	
536	4.458	-1894.90649	177.61462	1696.09924	-2001.53198	177.14693	1606.83093	-1781.92310	167.22308	1633.09827	-1824.39868	365.38504	1396.31104	-1707.45862	102.16843	1235.24133	-1875.85889	498.76443	1088.81763	-2119.31030	493.15955	994.98407	-1851.50586	-40.89293	1385.34180	-1756.15955	-130.88103	1078.90332	-1763.87439	-159.04926	822.26318	-1901.22363	326.04443	903.90106	-1950.67810	42.22534	925.62750	-1706.08032	136.88367	905.66022	-1899.92053	327.32950	519.63940	-1789.70886	350.75198	427.10373	-1628.26636	261.30655	260.74023	-1449.91870	294.34219	209.92078	-1423.90979	216.72084	255.72147	-1462.49561	283.27811	60.98319	-2071.44678	91.00457	648.32239	-2044.74365	40.10941	467.86444	-2064.86230	123.73645	331.57715	-2021.47363	65.96214	59.85029	-1953.73206	118.20659	42.46452	-2161.75000	79.24152	40.23801	-1490.50439	273.96454	30.01082	-1480.40527	250.11002	58.90046	-1482.62268	215.60942	148.20085	-1448.68640	195.92700	209.84534	-1416.46057	263.49860	230.00482	-1420.64014	299.77344	155.53938	-1431.49646	314.26993	90.74789	-2204.35327	107.96332	34.61282	-2171.71021	119.07575	43.21439	-2074.51367	158.07253	48.98939	-1990.12915	152.78662	43.20117	-1983.43335	80.33327	39.90074	-2056.89819	56.26894	33.06546	-2121.61816	45.67008	37.44576	
537	4.467	-1905.89648	176.80226	1698.56323	-2012.69861	176.26762	1609.64258	-1792.56250	167.19681	1635.24048	-1836.08423	364.59720	1398.50854	-1718.14221	101.39185	1238.03076	-1883.03809	496.34818	1089.41956	-2124.57813	493.04562	988.63641	-1863.37756	-41.17552	1387.56909	-1772.72522	-131.91170	1079.85132	-1786.23267	-159.98366	823.40564	-1912.77954	324.95392	906.06952	-1961.43555	40.87177	927.83325	-1715.81494	136.66386	908.19525	-1919.86804	326.20227	522.61316	-1811.81482	351.00159	428.26205	-1648.87537	261.51895	263.53391	-1470.23462	293.69952	217.30547	-1447.66199	216.09782	263.26334	-1474.67432	285.14081	66.25397	-2079.05054	90.21796	647.29797	-2049.41162	39.20125	467.38522	-2068.44214	122.67301	330.87796	-2021.20740	65.93693	59.83847	-1953.60742	118.29459	42.45119	-2161.74023	79.13290	40.06940	-1499.55115	279.25476	32.69792	-1493.90540	252.78612	62.77194	-1501.54138	215.00554	153.33730	-1470.67712	194.45511	216.40030	-1437.84888	261.94690	237.78180	-1438.35864	298.08292	164.20811	-1444.57666	313.37854	98.35361	-2204.36816	107.92528	34.52426	-2171.65601	118.98657	43.18564	-2074.41382	157.96834	49.03575	-1990.15820	152.78938	43.25236	-1983.28296	80.34704	39.90073	-2056.88232	56.21302	33.08295	-2121.53784	45.62263	37.44389	
538	4.475	-1916.81067	176.11475	1701.18787	-2023.78003	175.46904	1612.24768	-1803.98193	166.00713	1638.10120	-1846.32935	364.71356	1401.05945	-1731.80469	100.45663	1240.85498	-1889.96716	494.02411	1090.21179	-2128.81274	493.32916	982.10248	-1876.08496	-41.78591	1390.42273	-1789.90747	-133.48462	1080.98828	-1809.45215	-160.90033	824.89685	-1923.68225	323.90387	908.66895	-1972.16394	39.96601	930.02057	-1728.49805	136.29614	909.73236	-1939.80359	324.93155	525.92963	-1834.68787	351.87073	429.65756	-1671.34192	260.04776	267.88699	-1490.80627	293.16724	223.16727	-1471.41760	215.36078	269.42102	-1490.40649	287.73941	72.19244	-2086.02515	90.27513	646.53595	-2053.49658	38.83991	467.04413	-2071.60376	121.87363	330.28397	-2020.92896	65.92413	59.63424	-1953.55664	118.37274	42.47584	-2161.88013	78.92982	40.08593	-1512.45935	285.71597	40.64190	-1510.00256	256.67935	67.99017	-1520.84106	215.08951	157.07515	-1493.20947	194.04837	220.98851	-1461.04480	259.41364	244.48203	-1456.85083	296.92300	170.89401	-1461.18127	313.51129	105.26801	-2205.06250	108.26647	34.78227	-2171.67139	118.99856	43.14424	-2074.52563	157.94725	48.92434	-1990.10730	152.78331	43.35212	-1983.23010	80.35728	39.91730	-2056.80981	56.18258	33.01219	-2121.51831	45.50993	37.46152	
539	4.483	-1927.82104	175.10530	1704.07886	-2034.77710	174.72562	1614.97571	-1814.69666	166.23888	1640.71838	-1857.29797	364.18811	1403.68738	-1741.75916	99.79575	1243.35376	-1897.69250	492.62997	1091.48816	-2132.53760	493.16891	975.55927	-1887.53418	-41.27631	1392.98254	-1807.20081	-134.91699	1082.51453	-1832.30066	-161.49602	826.64148	-1934.74280	322.81363	911.24780	-1982.97607	38.98935	932.27832	-1737.96436	135.30336	912.78052	-1959.59399	323.87610	529.82306	-1857.41431	352.24066	432.19449	-1691.87646	260.83145	269.81516	-1511.67920	291.38971	228.29111	-1493.29797	212.45807	273.18906	-1509.81848	289.74930	78.22213	-2092.27417	90.78348	646.06830	-2056.84668	37.51527	466.59528	-2074.65063	120.76974	329.67178	-2020.75854	65.78043	59.55691	-1953.44373	118.19447	42.60366	-2161.64624	79.08871	39.80249	-1533.66675	285.81732	43.93332	-1530.43823	257.91510	71.95442	-1542.22876	215.18385	160.44917	-1514.35413	193.06647	224.13628	-1482.22327	257.25067	249.68484	-1477.19348	296.74219	176.83362	-1481.10498	314.48883	111.36077	-2204.38794	107.70607	34.42054	-2171.63135	118.90727	43.13508	-2074.63281	157.85542	48.83924	-1990.12585	152.73978	43.45274	-1983.15466	80.27911	40.02963	-2056.79785	56.10501	32.99503	-2121.41821	45.40781	37.40351																																																	-2154.60522	487.89465	1008.97375	
540	4.492	-1938.88770	174.59096	1706.54688	-2045.67468	174.16579	1617.70459	-1826.04065	165.40878	1643.78674	-1867.72498	364.26526	1405.91602	-1752.83118	98.82418	1246.10364	-1904.27197	490.87839	1092.76477	-2135.87427	493.43384	968.87866	-1900.14343	-41.85212	1395.91882	-1824.11096	-135.47839	1084.08569	-1855.84253	-161.79413	828.97015	-1944.40283	322.78424	913.88123	-1994.20862	37.71739	934.49524	-1749.10657	134.44658	915.46362	-1979.08215	323.15067	533.98486	-1879.59070	352.69614	434.67078	-1714.93201	256.88599	275.88361	-1533.06445	290.25586	232.79500	-1513.27441	209.61729	275.34583	-1534.99402	290.33011	82.28113	-2098.56714	91.21643	645.20355	-2059.88770	37.28967	466.06473	-2076.96362	119.71961	328.85559	-2020.62354	65.67710	59.42876	-1953.44934	118.28522	42.86478	-2161.64722	79.06694	39.67718	-1558.18311	285.03046	46.64334	-1554.27405	257.89587	75.70901	-1563.96277	214.52740	164.08572	-1534.87048	192.46388	226.95274	-1503.04871	256.54843	253.02180	-1500.05078	296.35516	181.60652	-1504.32593	316.11249	116.75681	-2204.35986	107.66364	34.37281	-2171.52588	118.97088	42.92577	-2074.52295	157.79704	48.87156	-1990.13318	152.69818	43.55087	-1982.95593	80.29124	40.03379	-2056.73267	56.09604	32.94971	-2121.39648	45.29974	37.48918	
